<?xml version="1.0" encoding="utf-8"?>
<!DOCTYPE svg PUBLIC "-//W3C//DTD SVG 1.0//EN" "http://www.w3.org/TR/2001/REC-SVG-20010904/DTD/svg10.dtd">
<svg version="1.0" xmlns="http://www.w3.org/2000/svg" width="947px" height="312px" viewBox="0 0 947 312" preserveAspectRatio="xMidYMid meet">
 <g fill="#f6f5f3">
  <path d="M0 156 l0 -156 473.5 0 473.5 0 0 156 0 156 -473.5 0 -473.5 0 0 -156z m176.8 136.1 c27.4 -5.7 50.7 -18.3 70.8 -38.5 19.3 -19.4 32.6 -44.8 38.1 -72.3 2.5 -13 2.3 -34.8 -0.5 -48 -7.9 -36.9 -27.3 -65.8 -58.9 -88.1 -4.9 -3.4 -23.8 -12.6 -31.9 -15.5 -14.5 -5.2 -26.5 -7.2 -43.9 -7.2 -11.7 0 -18.3 0.5 -24.5 1.8 -59.8 12.8 -103.7 61.4 -110.1 122.2 -2.4 22.9 3.4 50.9 15.1 73.4 21.8 41.4 62.9 69.6 108.5 74.5 8.4 0.9 27.3 -0.3 37.3 -2.3z m717.3 -129.1 c16.2 -5 28.1 -17.9 32.5 -35.3 4 -15.4 -3.1 -33.7 -17.3 -44.6 -9.8 -7.6 -15.6 -9.6 -28.3 -9.5 -10 0 -10.9 0.1 -18.2 3.6 -21.8 10.3 -32.4 32.7 -25.7 54.4 7.6 24.6 33.3 38.8 57 31.4z m-514 -1.4 c3.7 -0.8 9 -2.6 11.9 -4.1 14.6 -7.4 24.3 -27 21.9 -44 -2.2 -16 -9.2 -26.1 -22.7 -32.9 -8.9 -4.5 -15.2 -5.5 -35.7 -5.8 l-19 -0.3 -0.3 44.3 -0.2 44.2 18.7 0 c12.3 0 21.1 -0.5 25.4 -1.4z m89 -3.3 c0.1 -2.7 0 -10.5 -0.1 -17.4 -0.1 -9.4 0.2 -13.5 1.4 -16.3 0.8 -2 6.9 -12.6 13.4 -23.4 6.6 -10.8 12.7 -21.2 13.6 -22.9 l1.7 -3.3 -6.3 0 -6.3 0 -9.2 16.8 c-5.1 9.2 -9.5 17.5 -9.9 18.5 -0.4 1.2 -1.7 1.7 -4.4 1.7 -3.7 0 -3.8 0 -9.9 -11 -3.5 -6 -7.3 -12.9 -8.7 -15.2 -1.3 -2.4 -3.1 -5.8 -4.1 -7.5 -1.6 -3.2 -1.8 -3.3 -8.5 -3.3 l-6.9 0 2.7 4.8 c1.5 2.6 3.5 5.8 4.4 7.2 0.9 1.4 6.5 10.4 12.3 20.2 l10.7 17.6 0 19.1 0 19.1 7 0 7 0 0.1 -4.7z m63.9 -25.8 l0 -30.5 3.4 0 c3.2 0 3.7 0.5 14.3 16.8 5.9 9.2 14.9 22.9 19.8 30.4 l9 13.8 6.8 0 6.7 0 0 -43.9 c0 -49.3 0.8 -45.1 -8.1 -45.1 l-4.9 0 0 31 0 31 -3.3 0 c-3.2 0 -3.7 -0.6 -11.7 -13.2 -4.7 -7.3 -13.5 -21.1 -19.8 -30.5 l-11.3 -17.3 -7.5 0 -7.4 0 0 44 0 44 7 0 7 0 0 -30.5z m96.6 21.3 l3 -9.3 22.5 0 22.4 0 3 9.2 3 9.2 6.9 0.1 c6.1 0 6.7 -0.2 6.1 -1.7 -0.4 -1 -2.2 -5.6 -3.9 -10.3 -16.1 -42.1 -29.1 -75.6 -29.7 -76 -0.4 -0.3 -4.2 -0.4 -8.6 -0.2 l-7.9 0.3 -16.2 43.3 c-8.9 23.8 -16.2 43.6 -16.2 43.9 0 0.4 2.8 0.7 6.3 0.7 l6.3 0 3 -9.2z m99.4 -25.3 l0 -34.5 3.3 0 3.2 0 5.4 15.3 c5.2 14.9 17.3 48.5 18.6 52 0.6 1.3 1.9 1.7 6 1.7 4.7 0 5.5 -0.3 6.1 -2.2 0.3 -1.3 5.4 -15.3 11.1 -31.3 5.8 -15.9 11 -30.2 11.5 -31.7 0.8 -2.3 1.6 -2.8 4.4 -2.8 l3.4 0 0 34 0 34 6 0 6 0 0 -44 0 -44 -5.7 0 c-3.2 0 -8.1 -0.3 -10.9 -0.6 l-5.1 -0.6 -2.7 7.8 c-1.5 4.4 -5.4 15.3 -8.6 24.4 -3.2 9.1 -7.3 20.7 -9.1 25.8 -3.1 9.1 -3.2 9.2 -6.4 9.2 l-3.3 0 -5 -14.2 c-2.8 -7.9 -7.2 -20.1 -9.7 -27.3 -2.6 -7.1 -5.6 -15.6 -6.7 -18.7 -1.5 -4.3 -2.5 -5.8 -3.9 -5.9 -1 0 -6.1 -0.1 -11.1 -0.1 l-9.3 -0.1 -0.3 44.2 -0.2 44.1 6.5 0 6.5 0 0 -34.5z"/>
  <path d="M129.6 284.4 c-31.3 -4.8 -61 -22.7 -80.6 -48.6 -10.8 -14.3 -17.2 -27.7 -21.8 -45.8 -2.5 -9.7 -2.7 -12 -2.7 -31.5 0 -22.6 0.5 -26.5 5.7 -42.5 11.2 -35 39.3 -64.3 73.8 -77 16.9 -6.2 24.4 -7.4 47 -7.5 13.7 0 22.5 0.5 26.5 1.4 17.4 3.9 35.8 11.6 48.8 20.4 8.9 6 26.5 23.9 32.6 33.2 14.6 22.2 20.1 42 20.1 72.1 0 21.8 -2.9 36.6 -10.8 54.4 -16.2 37 -54.6 65.7 -95.4 71.5 -12.7 1.8 -31.3 1.8 -43.2 -0.1z m10.7 -31.1 c0.4 -7.5 0.7 -29.3 0.7 -48.5 l0 -34.8 -9.9 0 -9.8 0 -0.7 4.6 c-0.3 2.6 -0.6 23.3 -0.6 46 l0 41.3 5.3 1.6 c4.4 1.2 11.7 3 13.8 3.4 0.3 0.1 0.9 -6 1.2 -13.6z m42.9 9.4 l7.3 -2.3 0.3 -36.7 0.2 -36.7 -11.5 0 -11.5 0 0 39.6 0 39.7 3.9 -0.7 c2.2 -0.3 7.3 -1.6 11.3 -2.9z m-90.2 -35.2 l0 -22.5 -12 0 -12 0 0 13.8 0 13.8 3.3 3.1 c3.8 3.7 18.5 14.3 19.8 14.3 0.5 0 0.9 -9.9 0.9 -22.5z m136.2 8.3 l4.7 -4.3 0.7 -53.1 c0.7 -53.1 0.7 -53.2 -1.4 -54.3 -1.1 -0.6 -4.3 -1.1 -7.1 -1.1 -7.8 0 -8.1 0.6 -8.1 17.9 0 8.1 -0.3 35.2 -0.7 60.2 l-0.6 45.3 3.9 -3.1 c2.1 -1.7 6 -5.1 8.6 -7.5z m-144.1 -54.7 c2.4 -2.4 2.9 -3.8 2.9 -7.5 l0 -4.6 -4.6 0 c-5.3 0 -7.5 1 -9.8 4.5 -1.5 2.3 -1.5 2.8 -0.1 5.5 2.9 5.7 7.2 6.4 11.6 2.1z m104.8 -20.6 c1.5 -1.4 2.4 -3.4 2.3 -5.2 -0.1 -3.2 -1.9 -12.4 -2.1 -10.5 0 0.6 -1.1 1.2 -2.4 1.2 -1.2 0 -4 0.9 -6.2 2 -2.2 1.1 -5.1 2 -6.5 2 -1.4 0 -2 0.3 -1.4 0.8 0.6 0.4 1.5 2.1 1.8 3.7 0.8 3.5 2.2 5.5 5.6 7.8 2.9 2 5.5 1.4 8.9 -1.8z m-56.1 -20 c1.7 -1.4 4.3 -2.6 5.8 -2.6 1.6 -0.1 2.2 -0.3 1.3 -0.6 -0.8 -0.2 -2.1 -1.9 -2.8 -3.8 -1.4 -4 -5.4 -7.5 -8.5 -7.5 -4.5 0.1 -8.6 5.7 -8.6 11.7 0 4.1 0.1 4.2 3.8 4.6 2 0.2 4.2 0.4 4.9 0.5 0.6 0.1 2.5 -0.9 4.1 -2.3z m93.9 -43.7 c1.2 -0.6 2.9 -2.5 3.7 -4.1 1.3 -2.7 1.3 -3.4 0 -5.9 -0.8 -1.5 -2.8 -3.5 -4.4 -4.3 -2.7 -1.4 -3.3 -1.4 -6 0 -4.2 2.2 -5.7 5.7 -4.2 9.9 0.7 1.8 1.2 4.2 1.2 5.3 0 2 0.3 2.1 3.8 1.2 2 -0.6 4.7 -1.5 5.9 -2.1z"/>
  <path d="M868.3 151.4 c-6 -2.2 -12.6 -8.5 -15.4 -14.6 -2.1 -4.7 -2.4 -6.8 -2.4 -17.8 0 -14.7 1.3 -19.1 7.8 -25.8 5.7 -5.8 12.4 -8.2 23.2 -8.2 11 0 17.8 2.5 23.3 8.3 6.1 6.7 7.7 12.1 7.7 26.2 0 10.4 -0.3 12.7 -2.3 17 -2.8 6 -7.3 10.9 -12.7 13.8 -5.3 2.8 -22.8 3.5 -29.2 1.1z"/>
  <path d="M350 118.4 l0 -32.7 13.8 0.6 c7.5 0.3 15.3 1.1 17.2 1.7 5.8 1.9 11.3 6.3 14.5 11.4 2.9 4.7 3 5.5 3.3 17.8 0.4 15.7 -0.9 20.5 -7.1 26.5 -6.2 6 -11.1 7.3 -27.7 7.3 l-14 0 0 -32.6z"/>
  <path d="M638 131.3 c0 -1.6 1.4 -6.6 3.1 -11.3 1.7 -4.7 4.7 -13.1 6.7 -18.8 l3.7 -10.3 3.4 0.3 3.4 0.3 6.3 17.5 c3.5 9.6 6.3 19.2 6.4 21.3 l0 3.7 -16.5 0 -16.5 0 0 -2.7z"/>
 </g>
 <g fill="#076fb4">
  <path d="M131.5 268.9 c-2.2 -0.5 -6.4 -1.6 -9.2 -2.4 l-5.3 -1.6 0 -44.3 c0 -24.4 0.3 -46.4 0.6 -49 l0.7 -4.6 12.8 0 12.9 0 0 37.8 c0 20.9 -0.3 44 -0.7 51.5 l-0.6 13.7 -3.6 -0.1 c-2 -0.1 -5.4 -0.5 -7.6 -1z"/>
  <path d="M165.7 269.4 c-0.4 -0.4 -0.7 -19.8 -0.7 -43.1 l0 -42.3 14.5 0 14.5 0 0 39.5 0 39.5 -2.7 1.1 c-8.4 3.2 -24.4 6.5 -25.6 5.3z"/>
  <path d="M88.1 252.5 c-8.1 -5 -13.9 -9.3 -18.8 -13.9 l-3.3 -3 0 -16.8 0 -16.8 15 0 15 0 0 27.5 c0 15.1 -0.1 27.5 -0.3 27.5 -0.2 0 -3.6 -2 -7.6 -4.5z"/>
  <path d="M214 232.7 c0 -10.7 0.3 -39.7 0.7 -64.6 0.5 -36.9 0.9 -45.5 2 -46.7 1.8 -1.7 16.4 -1.9 19.5 -0.3 l2.1 1.1 -0.7 56.2 -0.7 56.1 -4.7 4.4 c-5.6 5.2 -16.1 13.1 -17.3 13.1 -0.5 0 -0.9 -8.7 -0.9 -19.3z"/>
 </g>
 <g fill="#0b3e64">
  <path d="M136.5 297.4 c-67.4 -7.3 -120.2 -63.4 -124.1 -131.9 -3.5 -61.9 35 -119.6 93.1 -139.3 16.3 -5.5 24 -6.7 45 -6.7 20.6 0 31.5 1.7 46.9 7.2 8.1 2.9 27 12.1 31.9 15.5 31.6 22.2 50.9 51.1 58.9 88.1 2.9 13.5 3.1 40.6 0.5 54 -5.5 27.7 -18.9 52.9 -38.1 72.3 -19.9 20 -43.1 32.6 -70.3 38.4 -9.6 2.1 -34.3 3.4 -43.8 2.4z m33.3 -15.9 c36.3 -5.2 70.3 -28 89.4 -60 11.1 -18.6 16.8 -39.8 16.8 -62.9 0 -26.9 -6.1 -47.7 -20.1 -69.1 -6.1 -9.3 -23.7 -27.2 -32.6 -33.2 -13 -8.8 -31.5 -16.6 -48.8 -20.4 -3.8 -0.9 -12.4 -1.4 -23.5 -1.3 -14.4 0 -19.1 0.4 -26.6 2.2 -24.5 5.8 -42.4 15.5 -60.3 32.7 -14.1 13.5 -24.9 30.8 -30.9 49.5 -5 15.5 -5.7 20.1 -5.7 39.5 0 16.2 0.3 19.1 2.7 28.5 4.6 18.1 11 31.5 21.8 45.8 27.9 36.8 72.4 55.2 117.8 48.7z"/>
  <path d="M166.2 239.8 l0.3 -29.3 0.2 28.7 0.3 28.7 2.8 0.4 c2.5 0.4 2.5 0.4 -0.5 0.6 l-3.3 0.1 0.2 -29.2z"/>
  <path d="M142.4 235.5 c0 -17 0.2 -24.2 0.3 -15.8 0.2 8.3 0.2 22.3 0 31 -0.1 8.7 -0.3 1.9 -0.3 -15.2z"/>
  <path d="M95 255.3 c0 -0.5 -0.1 -12.3 -0.3 -26.3 l-0.2 -25.5 -14 -0.5 -14 -0.6 14.8 -0.2 14.7 -0.2 0 27 c0 14.9 -0.2 27 -0.5 27 -0.3 0 -0.5 -0.3 -0.5 -0.7z"/>
  <path d="M82.9 249.1 c-2.4 -1.6 -5.5 -3.9 -6.9 -5.1 l-2.5 -2.2 3.3 1.9 c1.8 1 4.1 2.5 5.1 3.4 1 0.9 3.1 2.4 4.7 3.2 1.6 0.9 2.4 1.6 1.8 1.7 -0.5 0 -3 -1.3 -5.5 -2.9z"/>
  <path d="M214.3 248 c0 -2.5 0.2 -3.5 0.4 -2.2 0.2 1.2 0.2 3.2 0 4.5 -0.2 1.2 -0.4 0.2 -0.4 -2.3z"/>
  <path d="M227.6 241.2 c0.5 -0.4 2.5 -2.1 4.4 -3.7 l3.5 -3 -3.4 3.8 c-1.9 2 -3.9 3.7 -4.5 3.7 -0.6 0 -0.6 -0.3 0 -0.8z"/>
  <path d="M67.4 216 c0 -6.9 0.1 -9.7 0.3 -6.2 0.2 3.4 0.2 9 0 12.5 -0.2 3.4 -0.3 0.6 -0.3 -6.3z"/>
  <path d="M236.5 192.5 c0 -19.8 0.1 -28 0.2 -18.3 0.2 9.7 0.2 25.9 0 36 -0.1 10.1 -0.2 2.1 -0.2 -17.7z"/>
  <path d="M118.4 187.5 c0 -11.5 0.2 -16.1 0.3 -10.2 0.2 5.9 0.2 15.4 0 21 -0.1 5.6 -0.3 0.8 -0.3 -10.8z"/>
  <path d="M166.4 194 c0 -5.8 0.1 -8.1 0.3 -5.2 0.2 2.8 0.2 7.6 0 10.5 -0.2 2.8 -0.3 0.5 -0.3 -5.3z"/>
  <path d="M215.4 185.5 c0 -10.4 0.2 -14.6 0.3 -9.2 0.2 5.4 0.2 13.9 0 19 -0.1 5.1 -0.3 0.7 -0.3 -9.8z"/>
  <path d="M74.8 186.4 c-3.4 -1.8 -5.8 -6.2 -5.8 -10.4 0 -6.7 7 -11.8 14.2 -10.5 3 0.6 4.1 0 12.5 -7.3 5.1 -4.3 12.1 -10.3 15.7 -13.3 6.2 -5.1 6.6 -5.6 6.6 -9.7 0 -5.5 2.4 -9.7 6.8 -11.8 6.2 -2.9 13.9 0.3 16.3 6.9 0.9 2.6 2.3 3.7 6.3 5.4 2.8 1.2 10 4.2 16 6.7 l10.9 4.6 4.2 -2 c2.3 -1.1 5 -2 6.1 -2 1.8 0 7.4 -7.9 25.6 -36.3 l5 -7.7 -1.8 -4.5 c-1.4 -3.9 -1.5 -5.2 -0.5 -8.6 1.4 -4.7 5.8 -7.9 10.9 -7.9 14.8 0 16.6 21.1 2 23.5 -3.7 0.7 -4.4 1.4 -10.2 10.4 -3.5 5.3 -9.8 15.3 -14 22.3 -6.7 11.2 -7.5 13 -6.5 14.9 1.9 3.6 0.6 11.7 -2.3 14.6 -3.4 3.4 -10 4.2 -14.4 1.8 -3.1 -1.7 -6.4 -6.6 -6.4 -9.7 0 -1.7 -1 -2.2 -18.8 -9.4 l-13.4 -5.4 -3.1 2.6 c-2.7 2.3 -3.8 2.6 -8.6 2.2 -4.6 -0.4 -5.8 -0.2 -8 1.8 -1.4 1.2 -8.4 7.1 -15.6 13.1 l-13 10.8 -0.5 5.1 c-0.6 5.6 -1.9 7.8 -6.1 10 -3.5 1.8 -6.6 1.7 -10.1 -0.2z"/>
  <path d="M215.4 152.5 c0 -6.6 0.1 -9.2 0.3 -5.7 0.2 3.4 0.2 8.8 0 12 -0.2 3.1 -0.3 0.3 -0.3 -6.3z"/>
  <path d="M216.2 123.5 c0.3 -1.6 1.2 -2 4.8 -2.1 3.4 -0.1 3.6 0 1 0.3 -1.9 0.2 -4.1 1.2 -4.8 2.1 -1.3 1.6 -1.4 1.5 -1 -0.3z"/>
  <path d="M506.3 281.5 c-3.8 -1.6 -4.7 -5.2 -1 -4 7.6 2.4 11.9 0.9 13.2 -4.7 l0.7 -2.6 -3.8 1.3 c-7.1 2.4 -13.1 -1.2 -14.1 -8.3 -0.7 -5.5 0.2 -8.9 3.4 -11.8 2.8 -2.6 8.8 -3.3 12.4 -1.4 1.3 0.7 1.9 0.7 1.9 0 0 -0.5 0.9 -1 2 -1 1.9 0 2 0.7 2 12 0 14.5 -1.2 18.4 -6.4 20.5 -4.3 1.8 -6.2 1.8 -10.3 0z m11.5 -15.2 c1.7 -2.3 1.5 -10.1 -0.2 -11.9 -0.8 -0.8 -2.8 -1.7 -4.5 -2 -2.3 -0.5 -3.5 -0.1 -5.5 1.9 -5.5 5.6 -1.5 15.7 5.7 14.3 1.8 -0.3 3.8 -1.4 4.5 -2.3z"/>
  <path d="M334 256.1 l0 -17.1 2.8 0 c2.6 0 3 0.7 7.8 12.5 l5 12.6 5.3 -12.6 c4.7 -11.1 5.5 -12.5 7.7 -12.5 l2.4 0 0 17.1 c0 15.7 -0.1 17 -1.7 16.7 -1.6 -0.3 -1.8 -1.7 -1.8 -13.1 0 -7 -0.2 -12.7 -0.5 -12.7 -0.3 0 -2.5 5 -4.9 11 -3.7 9.3 -4.7 11 -6.6 11 -1.9 0 -2.8 -1.7 -6.6 -11.2 l-4.4 -11.3 -0.5 13 c-0.4 11.3 -0.7 13 -2.2 13.3 -1.7 0.3 -1.8 -1 -1.8 -16.7z"/>
  <path d="M376.1 270.4 c-1.7 -1.4 -3.5 -4 -3.9 -5.7 -1 -3.8 0.3 -10.5 2.5 -13 3.6 -3.9 12.6 -3.8 16.5 0.1 1.1 1 2.3 3.6 2.8 5.6 2.6 11.6 -9.3 20.2 -17.9 13z m12.2 -3.6 c1 -1.3 1.7 -3.7 1.7 -6.3 0 -3.5 -0.5 -4.8 -2.6 -6.4 -3.5 -2.7 -5.9 -2.6 -8.9 0.4 -4.2 4.1 -3.1 12.5 1.8 14.5 2.9 1.1 5.8 0.3 8 -2.2z"/>
  <path d="M402.1 270.4 c-3.4 -2.8 -4.7 -7.4 -3.7 -12.8 1.3 -6.9 7.3 -10.4 13.9 -8.1 l3.7 1.3 0 -6.9 c0 -6.2 0.2 -6.9 2 -6.9 1.9 0 2 0.7 2 18 0 17.1 -0.1 18 -1.9 18 -1.1 0 -2.1 -0.5 -2.3 -1.1 -0.3 -0.9 -0.9 -0.9 -2.5 0 -3.6 1.8 -7.9 1.3 -11.2 -1.5z m12.1 -3.1 c1.3 -1.2 1.8 -3 1.8 -6.8 0 -4.9 -0.2 -5.3 -3.4 -7 -2.9 -1.6 -3.9 -1.7 -6.1 -0.7 -7.2 3.3 -5 16.2 2.7 16.2 1.7 0 4 -0.7 5 -1.7z"/>
  <path d="M430.9 271.6 c-2.8 -1.6 -5.9 -7.1 -5.9 -10.4 0 -3.1 1.9 -7.4 4.2 -9.9 1.7 -1.8 3.2 -2.3 7.4 -2.3 4.6 0 5.5 0.4 7.8 3.1 1.7 2 2.6 4.3 2.6 6.5 l0 3.4 -8.5 0 c-7.6 0 -8.5 0.2 -8.5 1.8 0 4.6 8.7 7.4 12.6 4.1 1.1 -0.9 1.8 -0.9 2.6 -0.1 3.5 3.5 -9 6.7 -14.3 3.8z m12.1 -14.5 c0 -1.6 -3 -4.1 -5.6 -4.7 -2.8 -0.7 -7.4 1.9 -7.4 4.1 0 1.2 1.4 1.5 6.5 1.5 3.6 0 6.5 -0.4 6.5 -0.9z"/>
  <path d="M453 255.1 c0 -17.5 0.1 -18.1 2 -18.1 2 0 2 0.5 1.8 17.7 -0.3 16 -0.5 17.8 -2 18.1 -1.7 0.3 -1.8 -1.1 -1.8 -17.7z"/>
  <path d="M464 261 c0 -11.3 0.1 -12 2 -12 1.9 0 2 0.7 2 12 0 11.3 -0.1 12 -2 12 -1.9 0 -2 -0.7 -2 -12z"/>
  <path d="M475 261.1 c0 -11.4 0.1 -12.1 2 -12.1 1.2 0 2 0.7 2 1.7 0 1.5 0.1 1.5 1.8 0 2.5 -2.3 9.4 -2.2 12.3 0.2 2.1 1.6 2.3 2.6 2.3 11.7 0.1 8.4 -0.1 9.9 -1.5 10.2 -1.5 0.3 -1.7 -1 -2 -8.8 -0.3 -7.7 -0.7 -9.4 -2.3 -10.6 -2.7 -1.9 -4.9 -1.8 -7.7 0.5 -2.1 1.7 -2.5 3 -2.9 10.2 -0.4 7 -0.8 8.4 -2.2 8.7 -1.6 0.3 -1.8 -0.8 -1.8 -11.7z"/>
  <path d="M542 271 c-1.2 -1.2 -2 -3.3 -2 -5.4 0 -4.7 3.7 -7.6 9.6 -7.6 3.7 0 4.4 -0.3 4.4 -2 0 -3 -4.3 -4.7 -8.3 -3.2 -2.2 0.8 -3.4 0.9 -4.2 0.1 -1.7 -1.8 2.4 -3.9 7.6 -3.9 6.2 0 8.7 2.1 9.3 8 0.8 6.7 -0.4 16 -2 16 -0.8 0 -1.4 -0.7 -1.4 -1.6 0 -1.4 -0.2 -1.4 -2.2 0 -3.1 2.2 -8.4 2 -10.8 -0.4z m8.9 -2.5 c3.2 -1.6 4.8 -6.3 2.5 -7.2 -1.7 -0.6 -6.4 0.5 -8.1 1.9 -1.9 1.5 -1.6 4.5 0.5 5.7 2.2 1.3 1.8 1.3 5.1 -0.4z"/>
  <path d="M565.4 271.7 c-0.2 -0.7 -0.3 -6 -0.2 -11.8 0.3 -9 0.5 -10.4 2.1 -10.7 1.1 -0.2 1.7 0.3 1.7 1.4 0 1.6 0.1 1.6 1.8 0.1 2.8 -2.5 10.4 -2.3 12.8 0.4 1.6 1.8 1.9 3.7 1.9 11.7 0 8.4 -0.2 9.7 -1.7 10 -1.6 0.3 -1.8 -0.6 -1.8 -8 0 -9.3 -1.5 -12.8 -5.4 -12.8 -1.3 0 -3.4 0.8 -4.6 1.8 -1.9 1.5 -2.3 3.1 -2.7 10.5 -0.4 6.5 -0.9 8.7 -2 8.7 -0.7 0 -1.6 -0.6 -1.9 -1.3z"/>
  <path d="M594.4 269.6 c-2.9 -2.9 -3.4 -4.1 -3.4 -8 0 -5.4 2.1 -10 5.1 -11.7 2.7 -1.4 8.1 -1.4 10.8 0 2 1.1 2.1 1 2.1 -5.9 0 -6.3 0.2 -7 2 -7 1.9 0 2 0.7 2 17.5 0 15.2 -0.2 17.6 -1.6 18.2 -0.9 0.3 -1.9 0 -2.4 -0.7 -0.6 -0.9 -1.3 -0.9 -2.8 -0.1 -4 2.1 -8.2 1.3 -11.8 -2.3z m12.8 -2.3 c1.3 -1.1 1.8 -3 1.8 -6.7 0 -4.6 -0.3 -5.3 -2.9 -6.9 -3.9 -2.3 -5.7 -2.1 -8.6 0.8 -3.2 3.1 -3.4 9.1 -0.5 12.3 2.5 2.6 7.6 2.9 10.2 0.5z"/>
  <path d="M639 271.2 c-16.7 -8.3 -7 -37.1 10.9 -32.2 5 1.3 9.6 5.7 8 7.7 -1 1.1 -1.5 1.1 -3.3 -0.5 -4.8 -4.4 -8.8 -5.2 -13.6 -2.7 -4.1 2.1 -6 6.3 -6 13.1 0 5 0.3 5.9 3.4 9 4.4 4.4 9.9 4.7 14.5 0.8 3.9 -3.2 7.2 -2.7 4.9 0.8 -3.6 5.4 -12.4 7.3 -18.8 4z"/>
  <path d="M668.4 271.8 c-2.5 -1.2 -6.4 -7.7 -6.4 -10.7 0 -3.7 2.7 -8.9 5.6 -10.7 2.9 -2 9.1 -2.2 12.4 -0.4 2.9 1.6 5 6.3 5 11.6 0 3.9 -0.5 5.1 -3.4 8 -2.7 2.7 -4.2 3.4 -7.2 3.3 -2.2 0 -4.9 -0.5 -6 -1.1z m11.2 -5.6 c2.3 -2.9 1.7 -9 -1.1 -11.7 -4.4 -4.5 -10.5 -2.1 -12 4.6 -1.8 8.3 8.1 13.7 13.1 7.1z"/>
  <path d="M690 261 c0 -11.3 0.1 -12 2 -12 1.2 0 2 0.7 2 1.8 0 1.2 0.3 1.4 0.8 0.4 2.3 -3.5 12.2 -2.9 14.2 0.9 1.4 2.6 2.5 14.9 1.6 18.3 -0.3 1.4 -1.2 2.6 -2 2.6 -1 0 -1.5 -2.3 -1.8 -9.1 -0.3 -7.5 -0.8 -9.4 -2.3 -10.5 -2.8 -2 -5.3 -1.7 -8 1.1 -2.2 2.2 -2.5 3.2 -2.5 10.5 0 7.3 -0.2 8 -2 8 -1.9 0 -2 -0.7 -2 -12z"/>
  <path d="M721.5 270.5 c-2.2 -2.2 -2.5 -3.2 -2.5 -10.5 0 -7.3 -0.2 -8 -2 -8 -1.1 0 -2 -0.7 -2 -1.5 0 -0.8 0.9 -1.5 1.9 -1.5 1.5 0 2.1 -0.8 2.3 -3.2 0.2 -2.2 0.9 -3.4 2.1 -3.6 1.4 -0.3 1.7 0.4 1.7 3.2 0 3.4 0.2 3.6 3.5 3.6 2.4 0 3.5 0.5 3.5 1.5 0 1 -1.1 1.5 -3.5 1.5 l-3.5 0 0 7.3 c0 8.1 0.9 9.7 5.3 9.7 2.2 0 2.8 0.4 2.3 1.6 -0.3 0.9 -0.6 1.8 -0.6 2 0 0.2 -1.4 0.4 -3 0.4 -1.9 0 -4 -0.9 -5.5 -2.5z"/>
  <path d="M734.8 262.7 c-0.2 -5.8 -0.2 -11.2 0 -12.1 0.4 -1.6 4.2 -2.3 4.2 -0.7 0 0.5 1.7 0.3 3.7 -0.4 4.1 -1.4 5.3 -1.2 5.3 1 0 0.7 -1.3 1.6 -2.9 2 -4.8 1 -6 3.2 -6.3 12 -0.2 6.5 -0.6 8 -2 8.3 -1.5 0.3 -1.7 -1 -2 -10.1z"/>
  <path d="M756.5 272.1 c-7.8 -3.2 -8.7 -18.2 -1.3 -22.2 1.2 -0.6 4.2 -1.1 6.7 -1.1 3.8 0.1 5.1 0.7 7.3 3.1 3.7 4.2 4.5 9.2 2.2 14.2 -2.6 5.9 -8.9 8.4 -14.9 6z m9.6 -4.8 c3.6 -3.1 2.9 -12.2 -1.1 -14.3 -4.8 -2.6 -11 1.3 -11 6.9 0 8.2 6.6 12.2 12.1 7.4z"/>
  <path d="M778.7 272.3 c-0.4 -0.3 -0.7 -8.4 -0.7 -18 0 -16.6 0.1 -17.3 2 -17.3 1.9 0 2 0.7 2 18 0 14.3 -0.3 18 -1.3 18 -0.8 0 -1.7 -0.3 -2 -0.7z"/>
  <path d="M463 241.1 c0 -1.1 0.5 -2.3 1 -2.6 1.8 -1.1 5 0.6 5 2.6 0 1.4 -0.7 1.9 -3 1.9 -2.3 0 -3 -0.5 -3 -1.9z"/>
  <path d="M631.3 230.5 c-0.7 -2 0.2 -2.9 3 -3 1.2 0 2.7 -1.1 3.5 -2.5 1.4 -2.4 1.1 -3.4 -3.1 -14 -2.6 -6.3 -4.2 -11.7 -3.6 -11.8 2.3 -0.8 3.7 1.1 6.9 9.2 1.8 4.7 3.4 8.6 3.5 8.6 0.1 0 1.7 -4 3.6 -9 2.5 -6.7 3.8 -9 5.1 -9 2.4 0 2.3 0.4 -1.6 10.6 -7.7 19.9 -9.4 22.4 -14.6 22.4 -1.1 0 -2.3 -0.7 -2.7 -1.5z"/>
  <path d="M806 225.2 c0 -5.2 0.8 -7.2 2.9 -7.2 2.7 0 3 0.8 1.7 5.8 -1.6 6.3 -4.6 7.2 -4.6 1.4z"/>
  <path d="M333.2 206.4 l0.3 -16.9 4.5 -0.3 c6.8 -0.5 14.3 1.5 17.3 4.6 5.1 5.4 6.2 13.5 2.7 20.8 -2.7 5.5 -7.1 7.6 -17.3 8.2 l-7.7 0.5 0.2 -16.9z m18.1 10.5 c4.8 -3.7 5.8 -13.7 2.1 -19.5 -1.9 -2.8 -6.3 -4.4 -12 -4.4 l-4.4 0 0 13 0 13 5.9 0 c4.4 0 6.5 -0.5 8.4 -2.1z"/>
  <path d="M366.7 221.2 c-1 -1 -1.7 -3.5 -1.7 -5.5 0 -4.8 3.6 -7.7 9.6 -7.7 3.7 0 4.4 -0.3 4.4 -2 0 -3 -4 -4.5 -8.1 -3.1 -4.2 1.4 -4.9 1.4 -4.9 -0.4 0 -4.5 13.2 -4.7 16.2 -0.1 0.4 0.6 0.8 5.5 0.8 10.9 0 7.7 -0.3 9.7 -1.4 9.7 -0.8 0 -1.6 -0.5 -1.8 -1.1 -0.3 -0.9 -0.9 -0.9 -2.5 0 -3.3 1.7 -8.8 1.4 -10.6 -0.7z m11.1 -4 c0.7 -0.9 1.1 -2.6 1 -3.7 -0.3 -2 -2.1 -2.3 -7.5 -1 -2.6 0.6 -3.2 4.2 -1.1 6.3 1.6 1.6 5.9 0.7 7.6 -1.6z"/>
  <path d="M394.4 221.6 c-1.5 -1.2 -2 -3 -2.4 -10.3 -0.5 -8.3 -0.6 -8.8 -2.8 -9.1 -2.8 -0.4 -2.4 -2.6 0.6 -3 1.5 -0.2 2.2 -1.2 2.4 -3.5 0.2 -2.1 0.9 -3.3 2.1 -3.5 1.4 -0.3 1.7 0.4 1.7 3.2 0 3.3 0.2 3.6 2.9 3.6 5.3 0 5 2.8 -0.3 3.2 -2.7 0.2 -2.7 0.2 -2.4 8.3 l0.3 8 3.3 0.3 c2.4 0.2 3.2 0.8 3.2 2.3 0 1.5 -0.7 1.9 -3.3 1.9 -1.8 0 -4.2 -0.6 -5.3 -1.4z"/>
  <path d="M408.2 221.4 c-1.6 -1.1 -2.2 -2.5 -2.2 -5.3 0 -5 2.6 -7.3 9 -7.9 4 -0.4 5 -0.8 5 -2.3 0 -2.9 -3.4 -4.2 -7.8 -2.9 -4.8 1.3 -5.2 1.3 -5.2 -0.5 0 -3.8 11.5 -5 15 -1.5 1.7 1.7 2 3.3 2 12 0 8.2 -0.3 10 -1.5 10 -0.8 0 -1.5 -0.7 -1.5 -1.7 0 -1.5 -0.1 -1.5 -1.8 0 -2.3 2.1 -8.1 2.2 -11 0.1z m9.6 -3 c1.4 -1 2.2 -2.6 2.2 -4.4 0 -2.6 -0.3 -2.8 -2.7 -2.4 -6.5 1 -7.3 1.4 -7.3 3.7 0 4.5 3.7 6 7.8 3.1z"/>
  <path d="M452 206.1 l0 -17.1 6.3 0 c6.7 0.1 12.7 1.8 15.7 4.5 5.4 4.9 6.2 16 1.7 22.7 -3.1 4.5 -6.5 5.9 -15.8 6.5 l-7.9 0.6 0 -17.2z m18.5 10.5 c2.6 -2.1 3 -3 3.3 -9.3 0.4 -6.6 0.2 -7.2 -2.5 -10.3 -2.7 -3 -3.7 -3.4 -9.2 -3.8 l-6.1 -0.4 0 13.1 0 13.1 5.8 0 c4.5 0 6.3 -0.5 8.7 -2.4z"/>
  <path d="M483.8 218.8 c-0.4 -3.7 -0.4 -8.5 0.1 -17.5 0.1 -2.4 2.6 -3.2 3.3 -1.2 0.3 0.9 0.9 0.9 2.5 0 1.2 -0.6 3.3 -1.1 4.7 -1.1 3.6 0 3.3 2.7 -0.3 3.5 -4.8 1 -6.1 3.4 -6.5 11.6 -0.5 9.4 -0.4 8.9 -2 8.9 -0.8 0 -1.5 -1.5 -1.8 -4.2z"/>
  <path d="M501 211 c0 -11.3 0.1 -12 2 -12 1.9 0 2 0.7 2 12 0 11.3 -0.1 12 -2 12 -1.9 0 -2 -0.7 -2 -12z"/>
  <path d="M514.2 212.3 c-4.7 -12 -5 -13.3 -2.4 -13.3 1.2 0 2.6 2.4 5.1 9 1.8 5 3.4 9 3.6 9 0.1 0 1.7 -4 3.6 -9 2.5 -6.7 3.8 -9 5.1 -9 2.6 0 2.3 1.2 -2.5 13 -6 14.3 -6.9 14.3 -12.5 0.3z"/>
  <path d="M538.8 221 c-5.8 -4.5 -6.2 -14.8 -0.7 -19.4 3.3 -2.8 9.3 -3.5 13 -1.6 2.4 1.3 4.9 6.1 4.9 9.5 0 2.5 0 2.5 -9 2.5 -5.8 0 -9 0.4 -9 1.1 0 1.8 5.7 6.9 7.7 6.9 1 0 3.1 -0.7 4.7 -1.5 2 -1.1 3.3 -1.2 4 -0.5 1.9 1.9 -2 4.3 -7.6 4.8 -4.3 0.3 -5.8 0 -8 -1.8z m13 -14.2 c-0.2 -0.6 -1.6 -2.1 -3.1 -3.2 -3.2 -2.4 -7.1 -1.5 -9.5 2.2 l-1.4 2.2 7.2 0 c5.1 0 7.1 -0.3 6.8 -1.2z"/>
  <path d="M561.7 222.3 c-0.4 -0.3 -0.7 -5.7 -0.7 -12 0 -10.6 0.1 -11.3 2 -11.3 1.2 0 2 0.7 2 1.7 0 1.5 0.1 1.5 1.8 0 2 -1.9 8.3 -2.3 11.2 -0.7 2.6 1.4 4 6.3 4 13.6 0 5.7 -0.2 6.4 -2 6.4 -1.8 0 -2 -0.7 -2 -5.9 0 -7.2 -1.2 -10.7 -3.9 -11.6 -5.8 -1.8 -9.1 3 -9.1 13.5 0 5.2 -0.3 7 -1.3 7 -0.8 0 -1.7 -0.3 -2 -0.7z"/>
  <path d="M601 206 l0 -17.3 8 0.6 c13.5 0.9 18.7 6.3 17.8 18.7 -0.7 10.4 -5.1 14.1 -18 14.8 l-7.8 0.5 0 -17.3z m18.7 9.5 c3.4 -3.4 3.5 -3.7 3.1 -10 -0.5 -8.9 -3.2 -11.7 -11.8 -12.3 l-6 -0.4 0 13.1 0 13.1 5.6 0 c5.1 0 5.9 -0.3 9.1 -3.5z"/>
  <path d="M657 211.1 c0 -11.4 0.1 -12.1 2 -12.1 1.2 0 2 0.7 2 1.6 0 1.4 0.1 1.4 1.6 0 2.3 -2.4 9.5 -2.1 12.2 0.4 2 1.9 2.2 3.1 2.2 11.5 0 7.5 -0.3 9.5 -1.4 9.5 -1 0 -1.5 -2 -1.8 -8.1 -0.3 -7 -0.6 -8.3 -2.7 -10 -2.9 -2.4 -4.3 -2.4 -7.2 0 -2.1 1.7 -2.5 3 -2.9 10.2 -0.4 7 -0.8 8.4 -2.2 8.7 -1.6 0.3 -1.8 -0.8 -1.8 -11.7z"/>
  <path d="M685 220.8 c-2.5 -2.7 -2.6 -6.9 -0.2 -9.8 1.4 -1.8 3.2 -2.4 7.5 -2.8 5.6 -0.4 6.6 -1.3 4.8 -4.1 -1 -1.5 -5 -1.8 -9.8 -0.6 -2.6 0.6 -3.3 0.4 -3.3 -0.7 0 -2 4.3 -3.8 9.1 -3.8 2.9 0 4.7 0.7 6.4 2.5 2.3 2.2 2.5 3.2 2.5 11.5 0 7.4 -0.3 9.2 -1.6 9.7 -0.9 0.3 -2 0 -2.5 -0.8 -0.6 -1.1 -1.1 -1.1 -2.1 -0.1 -2 2 -8.5 1.5 -10.8 -1z m10.4 -2.9 c1.5 -1.2 2.6 -3 2.6 -4.5 0 -2.3 -0.2 -2.4 -4.2 -1.8 -6.7 1 -8.6 3.5 -5.2 6.8 2.1 2.1 3.6 2 6.8 -0.5z"/>
  <path d="M708 211.5 c0 -9.7 0.3 -11.7 1.6 -12.2 0.9 -0.3 1.9 -0.1 2.3 0.5 0.4 0.7 1.2 0.8 2.1 0.2 2.4 -1.5 8.2 -1.1 10.2 0.7 1.7 1.5 1.9 1.5 3.6 0 1.1 -1 3.5 -1.7 6 -1.7 6.1 0 7.2 2.2 7.2 14.3 0 8.8 -0.2 9.8 -1.7 9.5 -1.8 -0.3 -2 -1.5 -2.2 -15.1 -0.1 -3 -0.6 -4 -2.6 -4.9 -1.9 -0.9 -2.9 -0.8 -4.9 0.6 -2.3 1.5 -2.5 2.3 -2.8 10.3 -0.2 7.2 -0.6 8.8 -1.9 9.1 -1.5 0.3 -1.7 -1 -2 -8.8 -0.3 -7.7 -0.7 -9.4 -2.3 -10.6 -2.7 -1.9 -3.3 -1.8 -6.1 1.1 -2.2 2.2 -2.5 3.2 -2.5 10.5 0 7.3 -0.2 8 -2 8 -1.9 0 -2 -0.7 -2 -11.5z"/>
  <path d="M765 222.3 c-7.5 -2.8 -8.9 -16.1 -2.2 -21.3 2.2 -1.8 3.7 -2.1 8.1 -1.8 3.7 0.4 5.8 1.1 6.8 2.3 2.2 3 -0.1 4.1 -4.1 2 -2.9 -1.6 -3.8 -1.7 -6.4 -0.6 -5.2 2.2 -6.8 8.8 -3.2 13.4 2.8 3.6 5.3 4.1 9.5 2.1 4.8 -2.2 6.8 -0.6 2.9 2.5 -2.6 2 -7.9 2.7 -11.4 1.4z"/>
  <path d="M784.3 220.6 c-2.2 -2 -2.5 -2.7 -1.6 -3.7 1 -1 1.6 -0.9 3.1 0.4 2.8 2.6 7.6 3.2 9.5 1.2 3 -3 1.7 -4.6 -5 -6.4 -5.2 -1.4 -7.3 -3.4 -7.3 -7 0 -3.9 2.8 -6.1 7.9 -6.1 4.9 0 8.1 1.4 8.1 3.5 0 1.8 -1.1 1.9 -4.4 0.4 -3.6 -1.7 -7.8 -0.4 -7.4 2.3 0.2 1.7 1.5 2.6 5.6 3.8 5.7 1.6 8.2 4 8.2 7.6 0 6 -11.3 8.7 -16.7 4z"/>
  <path d="M748.5 211.3 c0.3 -13.2 0.2 -12.3 2 -12.3 1.2 0 1.5 1.9 1.5 11.5 0 10.6 -0.2 11.5 -1.9 11.5 -1.7 0 -1.8 -0.8 -1.6 -10.7z"/>
  <path d="M431.7 211.3 c-1.8 -1.7 -0.1 -2.3 6.3 -2.3 5.6 0 7 0.3 7 1.5 0 1.2 -1.4 1.5 -6.3 1.5 -3.5 0 -6.7 -0.3 -7 -0.7z"/>
  <path d="M501.3 193.3 c-3.1 -1.2 0.3 -5.7 3.5 -4.6 1.7 0.7 1.5 4 -0.4 4.7 -0.9 0.3 -1.6 0.6 -1.7 0.5 -0.1 0 -0.8 -0.3 -1.4 -0.6z"/>
  <path d="M748 192.4 c-1.1 -1.2 -1.1 -1.8 0.2 -3 0.8 -0.8 2.2 -1.2 3.1 -0.8 2.1 0.8 2.2 4 0.1 4.8 -2.1 0.8 -2 0.8 -3.4 -1z"/>
 </g>
 <g fill="#1b1819">
  <path d="M578.2 215.3 c0.1 -5.4 0.3 -6.3 0.5 -3 0.3 3.4 0.8 4.7 1.9 4.7 2.2 0 1.4 5.4 -0.8 5.8 -1.6 0.3 -1.8 -0.5 -1.6 -7.5z"/>
  <path d="M674 219.8 c0 -2.4 0.3 -2.9 1 -1.8 0.6 1 1 -0.5 1.3 -5 0.3 -6.3 0.3 -6.2 0.5 1.8 0.2 6.7 -0.1 8.2 -1.3 8.2 -1 0 -1.5 -1 -1.5 -3.2z"/>
  <path d="M748.4 221.6 c-0.3 -0.8 -0.1 -2.3 0.5 -3.3 0.8 -1.4 1 -1.5 1.1 -0.3 0 1.3 0.1 1.3 1 0 0.7 -1.1 1 -0.7 1 1.8 0 3.4 -2.5 4.6 -3.6 1.8z"/>
  <path d="M441.7 211.3 c-1.3 -1.2 -0.7 -2.3 1.3 -2.3 1.1 0 2 0.7 2 1.5 0 1.5 -2.1 2.1 -3.3 0.8z"/>
  <path d="M796.7 203.4 c-0.8 -0.8 0.1 -2.4 1.4 -2.4 0.5 0 0.9 0.7 0.9 1.5 0 1.5 -1.2 2 -2.3 0.9z"/>
  <path d="M873.7 167.8 c-18.8 -2.3 -34 -15 -39.6 -33.2 -4.4 -14.3 -2.3 -31.1 5.3 -43 12.3 -19.1 38.3 -27 60.9 -18.6 12.1 4.5 23.9 16.9 28.2 29.5 2.6 7.5 3.1 20.7 1.2 28.2 -6.7 25.8 -28.8 40.5 -56 37.1z m20.8 -20.5 c5.4 -2.8 9.9 -7.8 12.7 -13.8 3.3 -7.2 3.3 -21.8 0 -29 -6.4 -13.9 -21.8 -20 -36.4 -14.5 -6.5 2.4 -12.9 8.7 -15.5 15 -2.8 7 -2.5 21.9 0.6 28.8 2.8 6.1 9.3 12.4 15.4 14.6 5.9 2.2 17.9 1.6 23.2 -1.1z"/>
  <path d="M333.2 118.8 l0.3 -47.3 21.9 0.2 c23.7 0.3 29.4 1.2 38.8 5.9 14.2 7.2 21.3 18.4 23.2 36.4 2 19.1 -7.6 39 -22.4 46.5 -8.8 4.4 -16.3 5.5 -40.3 5.5 l-21.7 0 0.2 -47.2z m46.5 27.6 c2.7 -0.9 6.6 -3.3 9 -5.7 5.9 -5.7 7.6 -11.2 7.1 -23.6 -0.3 -8.8 -0.6 -10.2 -3.3 -14.6 -3.4 -5.5 -8.9 -9.7 -15 -11.5 -2.2 -0.7 -8.6 -1.5 -14.2 -1.8 l-10.3 -0.5 0 29.7 0 29.6 11 0 c7.3 0 12.5 -0.5 15.7 -1.6z"/>
  <path d="M452 146.9 l0 -19.1 -7.7 -12.6 c-4.2 -7 -10.8 -17.9 -14.6 -24.2 -3.9 -6.3 -8.1 -13.1 -9.4 -15 -1.2 -1.9 -2.3 -3.7 -2.3 -4 0 -0.6 23.2 -0.3 23.4 0.2 0.1 0.2 1.8 3 3.8 6.3 1.9 3.3 3.7 6.5 3.9 7 1.1 3 13.3 23.5 13.9 23.5 0.4 0 1.1 -0.8 1.4 -1.7 0.4 -1 4.8 -9.3 9.9 -18.5 l9.2 -16.7 11.3 -0.3 c6.1 -0.2 11.2 -0.2 11.2 -0.2 0 0.4 -13.9 24 -21.8 37 -5.1 8.4 -9.8 16.7 -10.5 18.5 -0.9 2.4 -1.3 8.7 -1.2 21.2 l0 17.7 -10.2 0 -10.3 0 0 -19.1z"/>
  <path d="M516 118.6 l0 -47.3 10.3 0.2 10.2 0.2 8.3 12.4 c4.6 6.8 13.6 20.7 20 30.8 l11.7 18.3 0.3 -31.1 0.2 -31.1 7.9 0 c4.4 0 8.6 0.3 9.5 0.6 1.4 0.5 1.6 5.7 1.6 47.5 l0 46.9 -9.7 0 -9.8 0 -9 -13.8 c-4.9 -7.5 -13.9 -21.3 -20 -30.6 l-11 -17 -0.3 30.7 -0.2 30.7 -10 0 -10 0 0 -47.4z"/>
  <path d="M625.8 119.1 l17.6 -46.8 10.4 -0.6 c5.6 -0.3 10.8 -0.4 11.5 -0.1 0.7 0.2 7 15.6 14.1 34.2 17.2 45 22.6 59.2 22.6 59.7 0 0.3 -4.8 0.5 -10.7 0.5 l-10.8 -0.1 -3 -9.2 -3 -9.2 -19.4 0 -19.5 0 -3 9.3 -3 9.2 -10.7 0 -10.7 0 17.6 -46.9z m42.2 11.4 c0 -1 -12.3 -35.1 -12.9 -35.7 -0.4 -0.4 -2.3 3.8 -4.3 9.5 -2 5.6 -5 13.9 -6.6 18.5 l-3 8.2 13.4 0 c7.4 0 13.4 -0.2 13.4 -0.5z"/>
  <path d="M713.2 118.8 l0.3 -47.3 14 0 14 0 2.3 6.5 c4.8 13.2 11.5 31.9 16.4 45.8 2.8 7.9 5.2 14.1 5.4 13.9 0.2 -0.2 3.3 -8.6 6.8 -18.8 11 -31.6 16.6 -47.3 17 -47.7 0.2 -0.2 6.6 0 14.3 0.4 l13.8 0.7 0 46.8 0 46.9 -9.2 0 -9.3 0 0 -34.2 c0 -19.5 -0.4 -33.6 -0.9 -32.8 -0.8 1.4 -22.1 59.8 -23.5 64.8 -0.7 2 -1.3 2.2 -9.1 2.2 -7 0 -8.4 -0.3 -9 -1.7 -1.3 -3.5 -13.4 -37.1 -18.6 -52 l-5.4 -15.3 -0.3 34.5 -0.2 34.5 -9.5 0 -9.5 0 0.2 -47.2z"/>
 </g>
</svg>