<svg xmlns="http://www.w3.org/2000/svg" width="114" height="34" viewBox="0 0 114 34">
  <defs>
    <filter id="a" width="200%" height="200%" x="-50%" y="-50%" filterUnits="objectBoundingBox">
      <feOffset dy="1" in="SourceAlpha" result="shadowOffsetOuter1"/>
      <feGaussianBlur stdDeviation=".5" in="shadowOffsetOuter1" result="shadowBlurOuter1"/>
      <feColorMatrix values="0 0 0 0 0 0 0 0 0 0 0 0 0 0 0 0 0 0 0.08 0" in="shadowBlurOuter1" result="shadowMatrixOuter1"/>
      <feMerge>
        <feMergeNode in="shadowMatrixOuter1"/>
        <feMergeNode in="SourceGraphic"/>
      </feMerge>
    </filter>
  </defs>
  <g fill="none" fill-rule="evenodd" transform="translate(1)" filter="url(#a)">
    <g fill="#00AFBA">
      <polygon points="4.958 .023 .113 .023 8.225 14.085 10.659 9.87"/>
      <polygon points="24.248 .023 14.603 16.744 12.192 20.935 18.546 31.977 36.98 .023"/>
    </g>
    <g fill="#FFFFFF" transform="translate(44.845 4.282)">
      <path d="M3.67323944 1.32957746C3.26760563 2.86197183 2.83943662 4.41690141 2.43380282 5.94929577L1.35211268 5.94929577.18028169.0225352113 1.14929577.0225352113C1.41971831 1.53239437 1.69014085 2.9971831 1.96056338 4.50704225L3.08732394.0225352113 4.30422535.0225352113 5.43098592 4.52957746 6.4.0225352113 7.36901408.0225352113 6.06197183 5.94929577 4.95774648 5.94929577 3.67323944 1.32957746zM10.7267606 4.48450704C10.9971831 4.55211268 11.2901408 4.64225352 11.5605634 4.73239437 11.3577465 5.34084507 10.7943662 6.06197183 9.62253521 6.06197183 8.45070423 6.06197183 7.61690141 5.16056338 7.61690141 3.85352113 7.61690141 2.54647887 8.38309859 1.64507042 9.57746479 1.64507042 10.7492958 1.64507042 11.4929577 2.43380282 11.4929577 3.71830986 11.4929577 3.85352113 11.4929577 3.98873239 11.4704225 4.12394366L8.54084507 4.12394366C8.56338028 4.75492958 8.9915493 5.29577465 9.6 5.29577465 10.0732394 5.27323944 10.5239437 5.07042254 10.7267606 4.48450704zM10.5464789 3.42535211C10.5239437 2.7943662 10.2084507 2.38873239 9.6 2.38873239 8.9915493 2.38873239 8.65352113 2.88450704 8.63098592 3.42535211L10.5464789 3.42535211zM12.2591549 4.70985915C12.5521127 4.64225352 12.8676056 4.5971831 13.1605634 4.55211268 13.228169 4.89014085 13.4309859 5.29577465 14.1070423 5.29577465 14.2647887 5.29577465 15.0084507 5.22816901 15.0084507 4.68732394 15.0084507 3.67323944 12.3943662 4.70985915 12.3943662 2.88450704 12.3943662 2.16338028 13.115493 1.62253521 14.0394366 1.62253521 14.9408451 1.62253521 15.7295775 2.0056338 15.8422535 2.95211268 15.5492958 2.9971831 15.2338028 3.06478873 14.9408451 3.10985915 14.8732394 2.56901408 14.5577465 2.38873239 14.0394366 2.38873239 13.5887324 2.38873239 13.2957746 2.61408451 13.2957746 2.88450704 13.2957746 3.22253521 13.6112676 3.31267606 14.1295775 3.38028169 15.0985915 3.47042254 15.9098592 3.69577465 15.9098592 4.68732394 15.9098592 5.58873239 15.1211268 6.06197183 14.1070423 6.06197183 13.0028169 6.03943662 12.371831 5.47605634 12.2591549 4.70985915zM16.4957746 2.38873239L16.4957746 1.69014085 17.2394366 1.69014085 17.2394366.450704225 18.1408451.450704225 18.1408451 1.69014085 19.0197183 1.69014085 19.0197183 2.38873239 18.1408451 2.38873239 18.1408451 4.8C18.1408451 5.13802817 18.2309859 5.22816901 18.5464789 5.22816901 18.6816901 5.22816901 18.8169014 5.2056338 18.9521127 5.2056338L18.9521127 5.94929577 18.4112676 5.97183099 18.2985915 5.97183099C17.4873239 5.97183099 17.2394366 5.54366197 17.2394366 4.73239437L17.2394366 2.36619718 16.4957746 2.36619718 16.4957746 2.38873239zM22.8507042 4.48450704C23.1211268 4.55211268 23.4140845 4.64225352 23.684507 4.73239437 23.4816901 5.34084507 22.9183099 6.06197183 21.7464789 6.06197183 20.5746479 6.06197183 19.7408451 5.16056338 19.7408451 3.85352113 19.7408451 2.54647887 20.5070423 1.64507042 21.7014085 1.64507042 22.8732394 1.64507042 23.6169014 2.43380282 23.6169014 3.71830986 23.6169014 3.85352113 23.6169014 3.98873239 23.5943662 4.12394366L20.6647887 4.12394366C20.6873239 4.75492958 21.115493 5.29577465 21.7239437 5.29577465 22.1971831 5.27323944 22.6253521 5.07042254 22.8507042 4.48450704zM22.6478873 3.42535211C22.6253521 2.7943662 22.3098592 2.38873239 21.7014085 2.38873239 21.0929577 2.38873239 20.7549296 2.88450704 20.7323944 3.42535211L22.6478873 3.42535211zM27.0422535 1.64507042L27.0422535 2.43380282 26.5690141 2.43380282C25.9380282 2.43380282 25.6676056 2.83943662 25.6676056 3.69577465L25.6676056 5.97183099 24.7661972 5.97183099 24.7661972 1.71267606 25.6 1.71267606 25.6901408 2.18591549C25.8478873 1.93802817 26.1408451 1.64507042 26.6816901 1.64507042 26.771831 1.62253521 26.9295775 1.62253521 27.0422535 1.64507042zM30.6704225 3.65070423C30.6704225 2.77183099 30.3774648 2.38873239 29.7014085 2.38873239 29.0704225 2.38873239 28.7549296 2.7943662 28.7549296 3.65070423L28.7549296 5.97183099 27.8535211 5.97183099 27.8535211 1.71267606 28.6873239 1.71267606 28.7774648 2.18591549C28.9126761 1.91549296 29.3859155 1.64507042 29.9042254 1.64507042 31.1211268 1.64507042 31.5943662 2.32112676 31.5943662 3.67323944L31.5943662 5.9943662 30.6929577 5.9943662 30.6929577 3.65070423 30.6704225 3.65070423z"/>
      <polygon points="34.704 .023 35.628 .023 38.355 4.304 38.355 .023 39.301 .023 39.301 5.949 38.377 5.949 35.651 1.668 35.651 5.949 34.704 5.949"/>
      <path d="M42.2084507 6.03943662C40.9690141 6.03943662 40.2253521 5.13802817 40.2253521 3.83098592 40.2253521 2.52394366 40.9690141 1.62253521 42.2084507 1.62253521 43.4253521 1.62253521 44.1690141 2.52394366 44.1690141 3.83098592 44.1915493 5.13802817 43.4253521 6.03943662 42.2084507 6.03943662zM42.2084507 2.38873239C41.5549296 2.38873239 41.1267606 2.90704225 41.1267606 3.83098592 41.1267606 4.75492958 41.5549296 5.27323944 42.2084507 5.27323944 42.8619718 5.27323944 43.2901408 4.75492958 43.2901408 3.83098592 43.2901408 2.90704225 42.8619718 2.38873239 42.2084507 2.38873239zM47.5042254 1.64507042L47.5042254 2.43380282 47.0309859 2.43380282C46.4 2.43380282 46.1295775 2.83943662 46.1295775 3.69577465L46.1295775 5.97183099 45.228169 5.97183099 45.228169 1.71267606 46.0619718 1.71267606 46.1521127 2.18591549C46.3098592 1.93802817 46.6028169 1.64507042 47.143662 1.64507042 47.2112676 1.62253521 47.3915493 1.62253521 47.5042254 1.64507042z"/>
      <polygon points="50.885 2.817 49.915 5.949 48.879 5.949 47.91 1.69 48.856 1.69 49.442 4.755 50.366 1.69 51.358 1.69 52.349 4.755 52.98 1.69 53.927 1.69 52.913 5.949 51.876 5.949"/>
      <path d="M55.571831 3.15492958C55.2788732 3.10985915 54.9633803 3.04225352 54.6704225 2.9971831 54.7605634 2.05070423 55.5267606 1.62253521 56.428169 1.62253521 57.6225352 1.62253521 58.2535211 2.2084507 58.2535211 3.38028169L58.2535211 4.86760563C58.2535211 5.11549296 58.2985915 5.27323944 58.4788732 5.27323944 58.5464789 5.27323944 58.6591549 5.25070423 58.7042254 5.25070423L58.7042254 5.9943662C58.4338028 6.06197183 58.2760563 6.06197183 58.1633803 6.06197183 57.7352113 6.06197183 57.4873239 5.7915493 57.4197183 5.45352113 57.2619718 5.65633803 56.8112676 6.06197183 56.0901408 6.08450704 55.0985915 6.08450704 54.5126761 5.54366197 54.5126761 4.73239437 54.5126761 4.05633803 55.1211268 3.47042254 56.2478873 3.47042254L57.3521127 3.47042254 57.3521127 3.15492958C57.3521127 2.81690141 57.2169014 2.38873239 56.428169 2.38873239 55.9098592 2.38873239 55.571831 2.65915493 55.571831 3.15492958zM57.3521127 4.30422535L57.3521127 4.10140845 56.3380282 4.10140845C55.5943662 4.10140845 55.4366197 4.48450704 55.4366197 4.68732394 55.4366197 4.98028169 55.6394366 5.27323944 56.1802817 5.27323944 56.9239437 5.27323944 57.3521127 4.77746479 57.3521127 4.30422535zM61.9492958 1.69014085L62.8957746 1.69014085C62.4225352 2.9971831 61.9267606 4.28169014 61.4309859 5.58873239L60.6873239 7.61690141 59.8084507 7.61690141 60.4169014 5.94929577 58.8394366 1.69014085 59.7859155 1.69014085C60.1464789 2.74929577 60.5070423 3.78591549 60.8901408 4.84507042L61.9492958 1.69014085zM5.07042254 8.65352113L5.07042254 12.5971831C5.07042254 13.9267606 4.07887324 14.6704225 2.83943662 14.6704225 1.62253521 14.6704225.608450704 13.9267606.608450704 12.5971831L.608450704 8.65352113 1.55492958 8.65352113 1.55492958 12.5971831C1.55492958 13.3633803 2.11830986 13.8816901 2.86197183 13.8816901 3.58309859 13.8816901 4.14647887 13.3633803 4.14647887 12.5971831L4.14647887 8.65352113 5.07042254 8.65352113zM9.12676056 12.2591549C9.12676056 11.3802817 8.83380282 10.9971831 8.15774648 10.9971831 7.52676056 10.9971831 7.21126761 11.4028169 7.21126761 12.2591549L7.21126761 14.5802817 6.30985915 14.5802817 6.30985915 10.3211268 7.14366197 10.3211268 7.23380282 10.7943662C7.36901408 10.5239437 7.84225352 10.2535211 8.36056338 10.2535211 9.57746479 10.2535211 10.0507042 10.9295775 10.0507042 12.2816901L10.0507042 14.6028169 9.14929577 14.6028169 9.14929577 12.2591549 9.12676056 12.2591549zM11.1774648 8.65352113L12.2140845 8.65352113 12.2140845 9.66760563 11.1774648 9.66760563 11.1774648 8.65352113zM12.1464789 10.3211268L12.1464789 14.5802817 11.2450704 14.5802817 11.2450704 10.3211268 12.1464789 10.3211268z"/>
      <polygon points="15.955 10.321 16.901 10.321 15.324 14.58 14.423 14.58 12.823 10.321 13.769 10.321 14.851 13.476"/>
      <path d="M20.3943662 13.0929577C20.6647887 13.1605634 20.9577465 13.2507042 21.228169 13.3408451 21.0253521 13.9492958 20.4619718 14.6704225 19.2901408 14.6704225 18.1183099 14.6704225 17.284507 13.7690141 17.284507 12.4619718 17.284507 11.1549296 18.0507042 10.2535211 19.2450704 10.2535211 20.4169014 10.2535211 21.1605634 11.0422535 21.1605634 12.3267606 21.1605634 12.4619718 21.1605634 12.5971831 21.1380282 12.7323944L18.2084507 12.7323944C18.2309859 13.3633803 18.6591549 13.9042254 19.2676056 13.9042254 19.7408451 13.8816901 20.1915493 13.6788732 20.3943662 13.0929577zM20.2140845 12.0338028C20.1915493 11.4028169 19.8760563 10.9971831 19.2676056 10.9971831 18.6591549 10.9971831 18.3211268 11.4929577 18.2985915 12.0338028L20.2140845 12.0338028zM24.5633803 10.2535211L24.5633803 11.0422535 24.0901408 11.0422535C23.4591549 11.0422535 23.1887324 11.4478873 23.1887324 12.3042254L23.1887324 14.5802817 22.2873239 14.5802817 22.2873239 10.3211268 23.1211268 10.3211268 23.2112676 10.7943662C23.3690141 10.5464789 23.6619718 10.2535211 24.2028169 10.2535211 24.2704225 10.2309859 24.4507042 10.2309859 24.5633803 10.2535211zM24.9915493 13.3183099C25.284507 13.2507042 25.6 13.2056338 25.8929577 13.1605634 25.9605634 13.4985915 26.1633803 13.9042254 26.8394366 13.9042254 26.9971831 13.9042254 27.7408451 13.8366197 27.7408451 13.2957746 27.7408451 12.2816901 25.1267606 13.3408451 25.1267606 11.4929577 25.1267606 10.771831 25.8478873 10.2309859 26.771831 10.2309859 27.6732394 10.2309859 28.4619718 10.6140845 28.5746479 11.5605634 28.2816901 11.6056338 27.9661972 11.6732394 27.6732394 11.7183099 27.6056338 11.1774648 27.2901408 10.9971831 26.771831 10.9971831 26.3211268 10.9971831 26.028169 11.2225352 26.028169 11.4929577 26.028169 11.8309859 26.343662 11.9211268 26.8619718 11.9887324 27.8309859 12.0788732 28.6422535 12.3042254 28.6422535 13.2957746 28.6422535 14.1971831 27.8535211 14.6704225 26.8394366 14.6704225 25.7352113 14.6478873 25.1042254 14.084507 24.9915493 13.3183099zM29.7014085 8.65352113L30.7380282 8.65352113 30.7380282 9.66760563 29.7014085 9.66760563 29.7014085 8.65352113zM30.6704225 10.3211268L30.6704225 14.5802817 29.7690141 14.5802817 29.7690141 10.3211268 30.6704225 10.3211268zM31.6169014 10.9971831L31.6169014 10.2985915 32.3605634 10.2985915 32.3605634 9.05915493 33.2619718 9.05915493 33.2619718 10.2985915 34.1408451 10.2985915 34.1408451 10.9971831 33.2619718 10.9971831 33.2619718 13.4084507C33.2619718 13.7464789 33.3521127 13.8366197 33.6676056 13.8366197 33.8028169 13.8366197 33.9380282 13.8140845 34.0732394 13.8140845L34.0732394 14.5577465 33.5323944 14.5802817 33.4197183 14.5802817C32.6084507 14.5802817 32.3605634 14.1521127 32.3605634 13.3408451L32.3605634 10.9746479 31.6169014 10.9746479 31.6169014 10.9971831zM37.8140845 10.3211268L38.7605634 10.3211268C38.2873239 11.628169 37.7915493 12.9352113 37.2957746 14.2197183L36.5521127 16.2478873 35.6732394 16.2478873 36.2816901 14.5802817 34.7042254 10.3211268 35.6507042 10.3211268C36.0112676 11.3802817 36.371831 12.4169014 36.7549296 13.4760563L37.8140845 10.3211268zM42.8394366 14.6478873C41.6 14.6478873 40.856338 13.7464789 40.856338 12.4394366 40.856338 11.1323944 41.6 10.2309859 42.8394366 10.2309859 44.056338 10.2309859 44.8 11.1323944 44.8 12.4394366 44.8 13.7464789 44.056338 14.6478873 42.8394366 14.6478873zM42.8394366 10.9971831C42.1859155 10.9971831 41.7577465 11.515493 41.7577465 12.4394366 41.7577465 13.3633803 42.1859155 13.8816901 42.8394366 13.8816901 43.4929577 13.8816901 43.9211268 13.3633803 43.9211268 12.4394366 43.9211268 11.515493 43.4929577 10.9971831 42.8394366 10.9971831zM46.084507 10.3211268L46.084507 9.8028169C46.084507 9.10422535 46.4 8.65352113 47.256338 8.65352113L47.8873239 8.65352113 47.8873239 9.41971831 47.3690141 9.41971831C47.1211268 9.41971831 47.0084507 9.57746479 47.0084507 9.84788732L47.0084507 10.3211268 47.8197183 10.3211268 47.8197183 11.0197183 47.0084507 11.0197183 47.0084507 14.5802817 46.1070423 14.5802817 46.1070423 11.0197183 45.3633803 11.0197183 45.3633803 10.3211268 46.084507 10.3211268zM3.94366197 21.971831L1.53239437 21.971831 1.10422535 23.1661972.135211268 23.1661972 2.27605634 17.2394366 3.17746479 17.2394366 5.31830986 23.1661972 4.34929577 23.1661972 3.94366197 21.971831zM1.82535211 21.1830986L3.69577465 21.1830986 2.77183099 18.5239437 1.82535211 21.1830986zM6.12957746 18.9295775L6.96338028 18.9295775 7.05352113 19.4704225C7.21126761 19.2450704 7.68450704 18.8394366 8.29295775 18.8394366 9.35211268 18.8394366 10.1183099 19.7408451 10.1183099 21.0478873 10.1183099 22.3549296 9.44225352 23.256338 8.29295775 23.256338 7.72957746 23.256338 7.23380282 22.9183099 7.05352113 22.6478873L7.05352113 24.8338028 6.12957746 24.8338028 6.12957746 18.9295775 6.12957746 18.9295775zM8.11267606 19.6056338C7.43661972 19.6056338 7.05352113 20.1239437 7.05352113 21.0478873 7.05352113 21.971831 7.43661972 22.4901408 8.11267606 22.4901408 8.76619718 22.4901408 9.1943662 21.971831 9.1943662 21.0478873 9.1943662 20.1239437 8.76619718 19.6056338 8.11267606 19.6056338zM11.1323944 18.9295775L11.9661972 18.9295775 12.056338 19.4704225C12.2140845 19.2450704 12.6873239 18.8394366 13.2957746 18.8394366 14.3549296 18.8394366 15.1211268 19.7408451 15.1211268 21.0478873 15.1211268 22.3549296 14.4450704 23.256338 13.2957746 23.256338 12.7323944 23.256338 12.2366197 22.9183099 12.056338 22.6478873L12.056338 24.8338028 11.1323944 24.8338028 11.1323944 18.9295775 11.1323944 18.9295775zM13.0929577 19.6056338C12.4169014 19.6056338 12.0338028 20.1239437 12.0338028 21.0478873 12.0338028 21.971831 12.4169014 22.4901408 13.0929577 22.4901408 13.7464789 22.4901408 14.1746479 21.971831 14.1746479 21.0478873 14.1746479 20.1239437 13.7464789 19.6056338 13.0929577 19.6056338z"/>
      <polygon points="17.037 17.262 17.037 23.189 16.135 23.189 16.135 17.262"/>
      <path d="M18.2309859 17.2619718L19.2676056 17.2619718 19.2676056 18.2760563 18.2309859 18.2760563 18.2309859 17.2619718zM19.2 18.9295775L19.2 23.1887324 18.2985915 23.1887324 18.2985915 18.9295775 19.2 18.9295775zM23.3464789 21.7014085C23.6169014 21.7690141 23.9098592 21.8591549 24.1802817 21.9492958 23.9774648 22.5577465 23.4140845 23.2788732 22.2422535 23.2788732 21.0704225 23.2788732 20.2366197 22.3774648 20.2366197 21.0704225 20.2366197 19.7633803 21.0028169 18.8619718 22.1971831 18.8619718 23.3690141 18.8619718 24.1126761 19.6507042 24.1126761 20.9352113 24.1126761 21.0704225 24.1126761 21.2056338 24.0901408 21.3408451L21.1605634 21.3408451C21.1830986 21.971831 21.6112676 22.5126761 22.2197183 22.5126761 22.6929577 22.5126761 23.1211268 22.2873239 23.3464789 21.7014085zM23.143662 20.6422535C23.1211268 20.0112676 22.8056338 19.6056338 22.1971831 19.6056338 21.5887324 19.6056338 21.2507042 20.1014085 21.228169 20.6422535L23.143662 20.6422535zM28.9352113 23.1887324L28.1014085 23.1887324 28.0112676 22.6478873C27.8535211 22.8732394 27.3802817 23.256338 26.771831 23.256338 25.7126761 23.256338 24.9239437 22.3549296 24.9239437 21.0478873 24.9239437 19.7408451 25.6225352 18.8394366 26.771831 18.8394366 27.3352113 18.8394366 27.8309859 19.2 28.0112676 19.4478873L28.0112676 17.2619718 28.9352113 17.2619718 28.9352113 23.1887324 28.9352113 23.1887324zM26.9746479 22.5126761C27.628169 22.5126761 28.0338028 21.9943662 28.0338028 21.0704225 28.0338028 20.1464789 27.628169 19.628169 26.9746479 19.628169 26.3211268 19.628169 25.8704225 20.1464789 25.8704225 21.0704225 25.8704225 21.9943662 26.3211268 22.5126761 26.9746479 22.5126761zM32.7661972 21.1605634C32.7661972 21.7239437 33.171831 22.4901408 34.1859155 22.4901408 34.884507 22.4901408 35.4929577 22.1521127 35.4929577 21.4985915 35.4929577 20.7549296 34.8169014 20.5971831 34.1859155 20.5521127 33.2169014 20.4619718 32 20.1464789 32 18.9070423 32 17.6901408 33.1492958 17.1943662 34.1408451 17.1943662 35.2 17.1943662 36.2591549 17.8253521 36.3042254 18.9295775L35.4028169 19.0873239C35.3352113 18.3211268 34.7267606 18.0056338 34.1408451 18.0056338 33.5549296 18.0056338 32.9239437 18.2535211 32.9239437 18.9295775 32.9239437 19.3352113 33.2619718 19.6732394 34.2309859 19.7859155 35.2 19.8985915 36.4394366 20.1239437 36.4394366 21.5211268 36.4394366 22.5802817 35.515493 23.3014085 34.1859155 23.3014085 32.5183099 23.3014085 31.8647887 22.2422535 31.8197183 21.3633803L32.7661972 21.1605634zM40.1126761 21.6788732C40.4056338 21.7239437 40.7211268 21.7915493 41.0140845 21.8366197 40.8788732 22.5352113 40.2704225 23.256338 39.143662 23.256338 37.9042254 23.256338 37.1380282 22.3549296 37.1380282 21.0478873 37.1380282 19.7408451 37.9267606 18.8394366 39.143662 18.8394366 40.2704225 18.8394366 40.8112676 19.5380282 40.9915493 20.2591549 40.6985915 20.3267606 40.3830986 20.371831 40.0901408 20.4169014 39.9549296 19.8760563 39.5943662 19.6056338 39.1661972 19.6056338 38.4450704 19.6056338 38.0619718 20.1915493 38.0619718 21.0478873 38.0619718 21.9042254 38.4450704 22.4901408 39.1661972 22.4901408 39.6394366 22.5126761 39.9774648 22.2197183 40.1126761 21.6788732zM41.9605634 17.2619718L42.9971831 17.2619718 42.9971831 18.2760563 41.9605634 18.2760563 41.9605634 17.2619718zM42.9295775 18.9295775L42.9295775 23.1887324 42.028169 23.1887324 42.028169 18.9295775 42.9295775 18.9295775zM47.0760563 21.7014085C47.3464789 21.7690141 47.6394366 21.8591549 47.9098592 21.9492958 47.7070423 22.5577465 47.143662 23.2788732 45.971831 23.2788732 44.8 23.2788732 43.9661972 22.3774648 43.9661972 21.0704225 43.9661972 19.7633803 44.7323944 18.8619718 45.9267606 18.8619718 47.0985915 18.8619718 47.8422535 19.6507042 47.8422535 20.9352113 47.8422535 21.0704225 47.8422535 21.2056338 47.8197183 21.3408451L44.8901408 21.3408451C44.9126761 21.971831 45.3408451 22.5126761 45.9492958 22.5126761 46.4225352 22.5126761 46.8507042 22.2873239 47.0760563 21.7014085zM46.8732394 20.6422535C46.8507042 20.0112676 46.5352113 19.6056338 45.9267606 19.6056338 45.3183099 19.6056338 44.9802817 20.1014085 44.9577465 20.6422535L46.8732394 20.6422535zM51.7633803 20.8676056C51.7633803 19.9887324 51.4704225 19.6056338 50.7943662 19.6056338 50.1633803 19.6056338 49.8478873 20.0112676 49.8478873 20.8676056L49.8478873 23.1887324 48.9464789 23.1887324 48.9464789 18.9295775 49.7802817 18.9295775 49.8704225 19.4028169C50.0056338 19.1323944 50.4788732 18.8619718 50.9971831 18.8619718 52.2140845 18.8619718 52.6873239 19.5380282 52.6873239 20.8901408L52.6873239 23.2112676 51.7859155 23.2112676 51.7859155 20.8676056 51.7633803 20.8676056zM56.5183099 21.6788732C56.8112676 21.7239437 57.1267606 21.7915493 57.4197183 21.8366197 57.284507 22.5352113 56.6760563 23.256338 55.5492958 23.256338 54.3098592 23.256338 53.543662 22.3549296 53.543662 21.0478873 53.543662 19.7408451 54.3323944 18.8394366 55.5492958 18.8394366 56.6760563 18.8394366 57.2169014 19.5380282 57.3971831 20.2591549 57.1042254 20.3267606 56.7887324 20.371831 56.4957746 20.4169014 56.3605634 19.8760563 56 19.6056338 55.571831 19.6056338 54.8507042 19.6056338 54.4676056 20.1915493 54.4676056 21.0478873 54.4676056 21.9042254 54.8507042 22.4901408 55.571831 22.4901408 56.0450704 22.5126761 56.3830986 22.2197183 56.5183099 21.6788732zM61.2507042 21.7014085C61.5211268 21.7690141 61.8140845 21.8591549 62.084507 21.9492958 61.8816901 22.5577465 61.3183099 23.2788732 60.1464789 23.2788732 58.9746479 23.2788732 58.1408451 22.3774648 58.1408451 21.0704225 58.1408451 19.7633803 58.9070423 18.8619718 60.1014085 18.8619718 61.2732394 18.8619718 62.0169014 19.6507042 62.0169014 20.9352113 62.0169014 21.0704225 62.0169014 21.2056338 61.9943662 21.3408451L59.0647887 21.3408451C59.0873239 21.971831 59.515493 22.5126761 60.1239437 22.5126761 60.5971831 22.5126761 61.0478873 22.2873239 61.2507042 21.7014085zM61.0704225 20.6422535C61.0478873 20.0112676 60.7323944 19.6056338 60.1239437 19.6056338 59.515493 19.6056338 59.1774648 20.1014085 59.1549296 20.6422535L61.0704225 20.6422535zM62.7380282 21.9267606C63.0309859 21.8591549 63.3464789 21.8140845 63.6394366 21.7690141 63.7070423 22.1070423 63.9098592 22.5126761 64.5859155 22.5126761 64.743662 22.5126761 65.4873239 22.4450704 65.4873239 21.9042254 65.4873239 20.8901408 62.8732394 21.9492958 62.8732394 20.1014085 62.8732394 19.3802817 63.5943662 18.8394366 64.5183099 18.8394366 65.4197183 18.8394366 66.2084507 19.2225352 66.3211268 20.1690141 66.028169 20.2140845 65.7126761 20.2816901 65.4197183 20.3267606 65.3521127 19.7859155 65.0366197 19.6056338 64.5183099 19.6056338 64.0676056 19.6056338 63.7746479 19.8309859 63.7746479 20.1014085 63.7746479 20.4394366 64.0901408 20.5295775 64.6084507 20.5971831 65.5774648 20.6873239 66.3887324 20.9126761 66.3887324 21.9042254 66.3887324 22.8056338 65.6 23.2788732 64.5859155 23.2788732 63.4816901 23.2788732 62.8507042 22.6929577 62.7380282 21.9267606z"/>
    </g>
  </g>
</svg>
